<mxfile host="app.diagrams.net" agent="Mozilla/5.0 (X11; Linux x86_64) AppleWebKit/537.36 (KHTML, like Gecko) Chrome/128.0.0.0 Safari/537.36" version="24.7.14">
  <diagram id="6a731a19-8d31-9384-78a2-239565b7b9f0" name="Page-1">
    <mxGraphModel dx="5266" dy="2976" grid="1" gridSize="13" guides="1" tooltips="1" connect="1" arrows="1" fold="1" page="1" pageScale="1" pageWidth="1169" pageHeight="827" background="#FFFFFF" math="0" shadow="0">
      <root>
        <mxCell id="0" />
        <mxCell id="1" parent="0" />
        <mxCell id="Vd40pdNITO2c-FGGTi2B-143" value="" style="swimlane;startSize=0;labelBackgroundColor=none;" parent="1" vertex="1">
          <mxGeometry x="-130" y="477" width="200" height="400" as="geometry" />
        </mxCell>
        <mxCell id="Vd40pdNITO2c-FGGTi2B-144" value="&lt;font style=&quot;font-size: 24px;&quot;&gt;student&lt;/font&gt;" style="rounded=1;whiteSpace=wrap;html=1;labelBackgroundColor=none;" parent="Vd40pdNITO2c-FGGTi2B-143" vertex="1">
          <mxGeometry x="40" y="30" width="120" height="60" as="geometry" />
        </mxCell>
        <mxCell id="Vd40pdNITO2c-FGGTi2B-145" value="&lt;font style=&quot;font-size: 21px;&quot;&gt;Sag Bureau&lt;/font&gt;" style="rounded=1;whiteSpace=wrap;html=1;labelBackgroundColor=none;" parent="Vd40pdNITO2c-FGGTi2B-143" vertex="1">
          <mxGeometry x="40" y="120" width="120" height="60" as="geometry" />
        </mxCell>
        <mxCell id="Vd40pdNITO2c-FGGTi2B-147" value="&lt;font style=&quot;font-size: 20px;&quot;&gt;Super Admin&lt;/font&gt;" style="rounded=1;whiteSpace=wrap;html=1;labelBackgroundColor=none;" parent="Vd40pdNITO2c-FGGTi2B-143" vertex="1">
          <mxGeometry x="40" y="320" width="120" height="60" as="geometry" />
        </mxCell>
        <mxCell id="Vd40pdNITO2c-FGGTi2B-146" value="&lt;font style=&quot;font-size: 22px;&quot;&gt;finace Bureau&lt;/font&gt;" style="rounded=1;whiteSpace=wrap;html=1;labelBackgroundColor=none;" parent="Vd40pdNITO2c-FGGTi2B-143" vertex="1">
          <mxGeometry x="36" y="221" width="120" height="60" as="geometry" />
        </mxCell>
        <mxCell id="Vd40pdNITO2c-FGGTi2B-148" value="" style="swimlane;startSize=0;labelBackgroundColor=none;" parent="1" vertex="1">
          <mxGeometry x="286" y="442" width="200" height="620" as="geometry" />
        </mxCell>
        <mxCell id="Vd40pdNITO2c-FGGTi2B-166" value="&lt;font style=&quot;font-size: 21px;&quot;&gt;REG&lt;/font&gt;" style="rounded=1;whiteSpace=wrap;html=1;labelBackgroundColor=none;" parent="Vd40pdNITO2c-FGGTi2B-148" vertex="1">
          <mxGeometry x="40" y="26" width="120" height="60" as="geometry" />
        </mxCell>
        <mxCell id="Vd40pdNITO2c-FGGTi2B-167" value="&lt;font style=&quot;font-size: 21px;&quot;&gt;Login&lt;/font&gt;" style="rounded=1;whiteSpace=wrap;html=1;labelBackgroundColor=none;" parent="Vd40pdNITO2c-FGGTi2B-148" vertex="1">
          <mxGeometry x="40" y="117" width="120" height="60" as="geometry" />
        </mxCell>
        <mxCell id="Vd40pdNITO2c-FGGTi2B-168" value="&lt;font style=&quot;font-size: 21px;&quot;&gt;Verification&lt;/font&gt;" style="rounded=1;whiteSpace=wrap;html=1;labelBackgroundColor=none;" parent="Vd40pdNITO2c-FGGTi2B-148" vertex="1">
          <mxGeometry x="40" y="208" width="120" height="60" as="geometry" />
        </mxCell>
        <mxCell id="Vd40pdNITO2c-FGGTi2B-169" value="&lt;font style=&quot;font-size: 21px;&quot;&gt;Status&lt;/font&gt;" style="rounded=1;whiteSpace=wrap;html=1;labelBackgroundColor=none;" parent="Vd40pdNITO2c-FGGTi2B-148" vertex="1">
          <mxGeometry x="40" y="299" width="120" height="60" as="geometry" />
        </mxCell>
        <mxCell id="Vd40pdNITO2c-FGGTi2B-170" value="&lt;font style=&quot;font-size: 21px;&quot;&gt;Query Raise and Appeal&lt;/font&gt;" style="rounded=1;whiteSpace=wrap;html=1;labelBackgroundColor=none;" parent="Vd40pdNITO2c-FGGTi2B-148" vertex="1">
          <mxGeometry x="40" y="390" width="120" height="60" as="geometry" />
        </mxCell>
        <mxCell id="Vd40pdNITO2c-FGGTi2B-171" value="&lt;font style=&quot;font-size: 21px;&quot;&gt;Other Scheme&lt;/font&gt;" style="rounded=1;whiteSpace=wrap;html=1;labelBackgroundColor=none;" parent="Vd40pdNITO2c-FGGTi2B-148" vertex="1">
          <mxGeometry x="40" y="494" width="120" height="60" as="geometry" />
        </mxCell>
        <mxCell id="Vd40pdNITO2c-FGGTi2B-151" value="" style="swimlane;startSize=0;labelBackgroundColor=none;" parent="1" vertex="1">
          <mxGeometry x="-637" y="78" width="215" height="399" as="geometry" />
        </mxCell>
        <mxCell id="Vd40pdNITO2c-FGGTi2B-172" value="&lt;font style=&quot;font-size: 21px;&quot;&gt;Login&lt;/font&gt;" style="rounded=1;whiteSpace=wrap;html=1;labelBackgroundColor=none;" parent="Vd40pdNITO2c-FGGTi2B-151" vertex="1">
          <mxGeometry x="52" y="26" width="120" height="60" as="geometry" />
        </mxCell>
        <mxCell id="Vd40pdNITO2c-FGGTi2B-173" value="&lt;font style=&quot;font-size: 17px;&quot;&gt;Student details and docs&lt;/font&gt;" style="rounded=1;whiteSpace=wrap;html=1;labelBackgroundColor=none;" parent="Vd40pdNITO2c-FGGTi2B-151" vertex="1">
          <mxGeometry x="47.5" y="104" width="120" height="60" as="geometry" />
        </mxCell>
        <mxCell id="Vd40pdNITO2c-FGGTi2B-174" value="&lt;font style=&quot;font-size: 18px;&quot;&gt;Document Revert and Info&lt;/font&gt;" style="rounded=1;whiteSpace=wrap;html=1;labelBackgroundColor=none;" parent="Vd40pdNITO2c-FGGTi2B-151" vertex="1">
          <mxGeometry x="47.5" y="182" width="120" height="60" as="geometry" />
        </mxCell>
        <mxCell id="Vd40pdNITO2c-FGGTi2B-175" value="&lt;font style=&quot;font-size: 21px;&quot;&gt;Other Dept Com&lt;/font&gt;" style="rounded=1;whiteSpace=wrap;html=1;labelBackgroundColor=none;" parent="Vd40pdNITO2c-FGGTi2B-151" vertex="1">
          <mxGeometry x="47.5" y="260" width="120" height="60" as="geometry" />
        </mxCell>
        <mxCell id="Vd40pdNITO2c-FGGTi2B-152" value="" style="swimlane;startSize=0;labelBackgroundColor=none;" parent="1" vertex="1">
          <mxGeometry x="125" y="1313" width="200" height="320" as="geometry" />
        </mxCell>
        <mxCell id="Vd40pdNITO2c-FGGTi2B-163" value="&lt;font style=&quot;font-size: 22px;&quot;&gt;Login&lt;/font&gt;" style="rounded=1;whiteSpace=wrap;html=1;labelBackgroundColor=none;" parent="Vd40pdNITO2c-FGGTi2B-152" vertex="1">
          <mxGeometry x="40" y="20" width="120" height="60" as="geometry" />
        </mxCell>
        <mxCell id="Vd40pdNITO2c-FGGTi2B-164" value="&lt;font style=&quot;font-size: 21px;&quot;&gt;Benificiar&lt;/font&gt;&lt;div&gt;&lt;font style=&quot;font-size: 21px;&quot;&gt;Details&lt;/font&gt;&lt;/div&gt;" style="rounded=1;whiteSpace=wrap;html=1;labelBackgroundColor=none;" parent="Vd40pdNITO2c-FGGTi2B-152" vertex="1">
          <mxGeometry x="40" y="113" width="120" height="60" as="geometry" />
        </mxCell>
        <mxCell id="Vd40pdNITO2c-FGGTi2B-165" value="&lt;font style=&quot;font-size: 21px;&quot;&gt;Query Raise and Res&lt;/font&gt;" style="rounded=1;whiteSpace=wrap;html=1;labelBackgroundColor=none;" parent="Vd40pdNITO2c-FGGTi2B-152" vertex="1">
          <mxGeometry x="40" y="204" width="120" height="60" as="geometry" />
        </mxCell>
        <mxCell id="Vd40pdNITO2c-FGGTi2B-154" style="edgeStyle=orthogonalEdgeStyle;rounded=0;orthogonalLoop=1;jettySize=auto;html=1;exitX=1;exitY=0.5;exitDx=0;exitDy=0;labelBackgroundColor=none;fontColor=default;" parent="1" source="Vd40pdNITO2c-FGGTi2B-153" target="Vd40pdNITO2c-FGGTi2B-147" edge="1">
          <mxGeometry relative="1" as="geometry" />
        </mxCell>
        <mxCell id="Vd40pdNITO2c-FGGTi2B-153" value="" style="swimlane;startSize=0;labelBackgroundColor=none;" parent="1" vertex="1">
          <mxGeometry x="-637" y="715" width="200" height="410" as="geometry" />
        </mxCell>
        <mxCell id="Vd40pdNITO2c-FGGTi2B-158" value="&lt;font style=&quot;font-size: 20px;&quot;&gt;Login&lt;/font&gt;" style="rounded=1;whiteSpace=wrap;html=1;labelBackgroundColor=none;" parent="Vd40pdNITO2c-FGGTi2B-153" vertex="1">
          <mxGeometry x="30" y="20" width="120" height="60" as="geometry" />
        </mxCell>
        <mxCell id="Vd40pdNITO2c-FGGTi2B-159" value="&lt;font style=&quot;font-size: 19px;&quot;&gt;Post Assignation&lt;/font&gt;" style="rounded=1;whiteSpace=wrap;html=1;labelBackgroundColor=none;" parent="Vd40pdNITO2c-FGGTi2B-153" vertex="1">
          <mxGeometry x="30" y="120" width="120" height="60" as="geometry" />
        </mxCell>
        <mxCell id="Vd40pdNITO2c-FGGTi2B-160" value="&lt;font style=&quot;font-size: 18px;&quot;&gt;Grivance Res&lt;/font&gt;" style="rounded=1;whiteSpace=wrap;html=1;labelBackgroundColor=none;" parent="Vd40pdNITO2c-FGGTi2B-153" vertex="1">
          <mxGeometry x="30" y="220" width="120" height="60" as="geometry" />
        </mxCell>
        <mxCell id="Vd40pdNITO2c-FGGTi2B-161" value="&lt;font style=&quot;font-size: 16px;&quot;&gt;Area Wise Fund Monitoring&lt;/font&gt;" style="rounded=1;whiteSpace=wrap;html=1;labelBackgroundColor=none;" parent="Vd40pdNITO2c-FGGTi2B-153" vertex="1">
          <mxGeometry x="30" y="310" width="120" height="60" as="geometry" />
        </mxCell>
        <mxCell id="Vd40pdNITO2c-FGGTi2B-155" style="edgeStyle=orthogonalEdgeStyle;rounded=0;orthogonalLoop=1;jettySize=auto;html=1;entryX=0.01;entryY=0.435;entryDx=0;entryDy=0;entryPerimeter=0;labelBackgroundColor=none;fontColor=default;" parent="1" source="Vd40pdNITO2c-FGGTi2B-146" target="Vd40pdNITO2c-FGGTi2B-152" edge="1">
          <mxGeometry relative="1" as="geometry" />
        </mxCell>
        <mxCell id="Vd40pdNITO2c-FGGTi2B-156" style="edgeStyle=orthogonalEdgeStyle;rounded=0;orthogonalLoop=1;jettySize=auto;html=1;entryX=1.015;entryY=0.66;entryDx=0;entryDy=0;entryPerimeter=0;labelBackgroundColor=none;fontColor=default;" parent="1" source="Vd40pdNITO2c-FGGTi2B-145" target="Vd40pdNITO2c-FGGTi2B-151" edge="1">
          <mxGeometry relative="1" as="geometry">
            <Array as="points">
              <mxPoint x="-286" y="627" />
              <mxPoint x="-286" y="338" />
              <mxPoint x="-419" y="338" />
            </Array>
          </mxGeometry>
        </mxCell>
        <mxCell id="Vd40pdNITO2c-FGGTi2B-157" style="edgeStyle=orthogonalEdgeStyle;rounded=0;orthogonalLoop=1;jettySize=auto;html=1;exitX=1;exitY=0.5;exitDx=0;exitDy=0;labelBackgroundColor=none;fontColor=default;" parent="1" source="Vd40pdNITO2c-FGGTi2B-144" target="Vd40pdNITO2c-FGGTi2B-148" edge="1">
          <mxGeometry relative="1" as="geometry" />
        </mxCell>
        <mxCell id="Vd40pdNITO2c-FGGTi2B-176" style="edgeStyle=orthogonalEdgeStyle;rounded=0;orthogonalLoop=1;jettySize=auto;html=1;exitX=0.5;exitY=1;exitDx=0;exitDy=0;entryX=0.61;entryY=-0.002;entryDx=0;entryDy=0;entryPerimeter=0;fontColor=default;labelBackgroundColor=none;" parent="1" source="Vd40pdNITO2c-FGGTi2B-175" target="Vd40pdNITO2c-FGGTi2B-153" edge="1">
          <mxGeometry relative="1" as="geometry" />
        </mxCell>
        <mxCell id="Vd40pdNITO2c-FGGTi2B-177" style="edgeStyle=orthogonalEdgeStyle;rounded=0;orthogonalLoop=1;jettySize=auto;html=1;exitX=1;exitY=1;exitDx=0;exitDy=0;fontColor=default;labelBackgroundColor=none;" parent="1" source="Vd40pdNITO2c-FGGTi2B-175" target="Vd40pdNITO2c-FGGTi2B-152" edge="1">
          <mxGeometry relative="1" as="geometry">
            <Array as="points">
              <mxPoint x="-469" y="377" />
              <mxPoint x="711" y="377" />
              <mxPoint x="711" y="1473" />
            </Array>
          </mxGeometry>
        </mxCell>
        <mxCell id="Vd40pdNITO2c-FGGTi2B-178" value="" style="swimlane;startSize=0;labelBackgroundColor=none;" parent="1" vertex="1">
          <mxGeometry x="-195" y="-728" width="390" height="416" as="geometry" />
        </mxCell>
        <mxCell id="Vd40pdNITO2c-FGGTi2B-179" value="&lt;font style=&quot;font-size: 21px;&quot;&gt;Document Section&lt;/font&gt;" style="rounded=0;whiteSpace=wrap;html=1;labelBackgroundColor=none;" parent="Vd40pdNITO2c-FGGTi2B-178" vertex="1">
          <mxGeometry x="65" y="39" width="234" height="60" as="geometry" />
        </mxCell>
        <mxCell id="Vd40pdNITO2c-FGGTi2B-180" value="&lt;font style=&quot;font-size: 21px;&quot;&gt;Verification Page&lt;/font&gt;" style="rounded=0;whiteSpace=wrap;html=1;labelBackgroundColor=none;" parent="Vd40pdNITO2c-FGGTi2B-178" vertex="1">
          <mxGeometry x="68" y="130" width="234" height="60" as="geometry" />
        </mxCell>
        <mxCell id="Vd40pdNITO2c-FGGTi2B-181" value="&lt;font style=&quot;font-size: 21px;&quot;&gt;Notification&lt;/font&gt;" style="rounded=0;whiteSpace=wrap;html=1;labelBackgroundColor=none;" parent="Vd40pdNITO2c-FGGTi2B-178" vertex="1">
          <mxGeometry x="65" y="221" width="234" height="60" as="geometry" />
        </mxCell>
        <mxCell id="Vd40pdNITO2c-FGGTi2B-182" value="&lt;font style=&quot;font-size: 21px;&quot;&gt;Payment Handler&lt;/font&gt;" style="rounded=0;whiteSpace=wrap;html=1;labelBackgroundColor=none;" parent="Vd40pdNITO2c-FGGTi2B-178" vertex="1">
          <mxGeometry x="68" y="312" width="234" height="60" as="geometry" />
        </mxCell>
        <mxCell id="Vd40pdNITO2c-FGGTi2B-184" value="&lt;font style=&quot;font-size: 21px;&quot;&gt;Senstive data hide using block chain&lt;/font&gt;" style="ellipse;shape=cloud;whiteSpace=wrap;html=1;labelBackgroundColor=none;" parent="1" vertex="1">
          <mxGeometry x="-975" y="-819" width="432" height="212" as="geometry" />
        </mxCell>
        <mxCell id="Vd40pdNITO2c-FGGTi2B-185" style="edgeStyle=orthogonalEdgeStyle;rounded=0;orthogonalLoop=1;jettySize=auto;html=1;exitX=0;exitY=0.25;exitDx=0;exitDy=0;fontColor=default;entryX=0.632;entryY=0.368;entryDx=0;entryDy=0;entryPerimeter=0;labelBackgroundColor=none;" parent="1" source="Vd40pdNITO2c-FGGTi2B-179" target="Vd40pdNITO2c-FGGTi2B-184" edge="1">
          <mxGeometry relative="1" as="geometry">
            <mxPoint x="-299" y="-468" as="targetPoint" />
          </mxGeometry>
        </mxCell>
        <mxCell id="_Lv-nAi7Yl4UMt47Rkj5-3" style="edgeStyle=orthogonalEdgeStyle;rounded=0;orthogonalLoop=1;jettySize=auto;html=1;entryX=1;entryY=0.25;entryDx=0;entryDy=0;labelBackgroundColor=none;fontColor=default;" parent="1" source="_Lv-nAi7Yl4UMt47Rkj5-2" target="Vd40pdNITO2c-FGGTi2B-179" edge="1">
          <mxGeometry relative="1" as="geometry" />
        </mxCell>
        <mxCell id="_Lv-nAi7Yl4UMt47Rkj5-16" style="edgeStyle=orthogonalEdgeStyle;rounded=0;orthogonalLoop=1;jettySize=auto;html=1;entryX=1;entryY=0.75;entryDx=0;entryDy=0;labelBackgroundColor=none;fontColor=default;" parent="1" source="_Lv-nAi7Yl4UMt47Rkj5-2" target="Vd40pdNITO2c-FGGTi2B-180" edge="1">
          <mxGeometry relative="1" as="geometry" />
        </mxCell>
        <mxCell id="_Lv-nAi7Yl4UMt47Rkj5-2" value="students" style="ellipse;whiteSpace=wrap;html=1;labelBackgroundColor=none;" parent="1" vertex="1">
          <mxGeometry x="312" y="-808" width="120" height="80" as="geometry" />
        </mxCell>
        <mxCell id="_Lv-nAi7Yl4UMt47Rkj5-17" style="edgeStyle=orthogonalEdgeStyle;rounded=0;orthogonalLoop=1;jettySize=auto;html=1;exitX=1;exitY=0;exitDx=0;exitDy=0;entryX=0;entryY=0.5;entryDx=0;entryDy=0;labelBackgroundColor=none;fontColor=default;" parent="1" source="_Lv-nAi7Yl4UMt47Rkj5-4" target="Vd40pdNITO2c-FGGTi2B-180" edge="1">
          <mxGeometry relative="1" as="geometry">
            <Array as="points">
              <mxPoint x="-677" y="-598" />
              <mxPoint x="-127" y="-598" />
            </Array>
          </mxGeometry>
        </mxCell>
        <mxCell id="_Lv-nAi7Yl4UMt47Rkj5-4" value="&lt;h1&gt;SAG BUREAU&lt;/h1&gt;" style="ellipse;whiteSpace=wrap;html=1;labelBackgroundColor=none;" parent="1" vertex="1">
          <mxGeometry x="-780" y="-468" width="120" height="86" as="geometry" />
        </mxCell>
        <mxCell id="_Lv-nAi7Yl4UMt47Rkj5-6" style="edgeStyle=orthogonalEdgeStyle;rounded=0;orthogonalLoop=1;jettySize=auto;html=1;entryX=0.392;entryY=-0.035;entryDx=0;entryDy=0;entryPerimeter=0;labelBackgroundColor=none;fontColor=default;" parent="1" source="Vd40pdNITO2c-FGGTi2B-184" target="_Lv-nAi7Yl4UMt47Rkj5-4" edge="1">
          <mxGeometry relative="1" as="geometry" />
        </mxCell>
        <mxCell id="_Lv-nAi7Yl4UMt47Rkj5-9" value="F" style="swimlane;startSize=0;labelBackgroundColor=none;" parent="1" vertex="1">
          <mxGeometry x="-559" y="-513" width="200" height="344" as="geometry" />
        </mxCell>
        <mxCell id="_Lv-nAi7Yl4UMt47Rkj5-11" value="&lt;font style=&quot;font-size: 22px;&quot;&gt;Student&lt;/font&gt;" style="rounded=0;whiteSpace=wrap;html=1;labelBackgroundColor=none;" parent="_Lv-nAi7Yl4UMt47Rkj5-9" vertex="1">
          <mxGeometry x="40" y="19" width="120" height="60" as="geometry" />
        </mxCell>
        <mxCell id="_Lv-nAi7Yl4UMt47Rkj5-12" value="&lt;font style=&quot;font-size: 21px;&quot;&gt;SAG&lt;/font&gt;" style="rounded=0;whiteSpace=wrap;html=1;labelBackgroundColor=none;" parent="_Lv-nAi7Yl4UMt47Rkj5-9" vertex="1">
          <mxGeometry x="40" y="100" width="120" height="60" as="geometry" />
        </mxCell>
        <mxCell id="_Lv-nAi7Yl4UMt47Rkj5-13" value="&lt;font style=&quot;font-size: 21px;&quot;&gt;Finance&lt;/font&gt;" style="rounded=0;whiteSpace=wrap;html=1;labelBackgroundColor=none;" parent="_Lv-nAi7Yl4UMt47Rkj5-9" vertex="1">
          <mxGeometry x="40" y="180" width="120" height="60" as="geometry" />
        </mxCell>
        <mxCell id="_Lv-nAi7Yl4UMt47Rkj5-14" value="&lt;font style=&quot;font-size: 21px;&quot;&gt;Super Admin&lt;/font&gt;" style="rounded=0;whiteSpace=wrap;html=1;labelBackgroundColor=none;" parent="_Lv-nAi7Yl4UMt47Rkj5-9" vertex="1">
          <mxGeometry x="40" y="266" width="120" height="60" as="geometry" />
        </mxCell>
        <mxCell id="_Lv-nAi7Yl4UMt47Rkj5-15" style="edgeStyle=orthogonalEdgeStyle;rounded=0;orthogonalLoop=1;jettySize=auto;html=1;entryX=1.015;entryY=0.334;entryDx=0;entryDy=0;entryPerimeter=0;labelBackgroundColor=none;fontColor=default;" parent="1" source="Vd40pdNITO2c-FGGTi2B-181" target="_Lv-nAi7Yl4UMt47Rkj5-9" edge="1">
          <mxGeometry relative="1" as="geometry" />
        </mxCell>
        <mxCell id="_Lv-nAi7Yl4UMt47Rkj5-19" style="edgeStyle=orthogonalEdgeStyle;rounded=0;orthogonalLoop=1;jettySize=auto;html=1;labelBackgroundColor=none;fontColor=default;" parent="1" source="_Lv-nAi7Yl4UMt47Rkj5-18" edge="1">
          <mxGeometry relative="1" as="geometry">
            <mxPoint x="-286" y="-598" as="targetPoint" />
          </mxGeometry>
        </mxCell>
        <mxCell id="_Lv-nAi7Yl4UMt47Rkj5-18" value="&lt;font style=&quot;font-size: 21px;&quot;&gt;DOC&lt;/font&gt;" style="ellipse;whiteSpace=wrap;html=1;labelBackgroundColor=none;" parent="1" vertex="1">
          <mxGeometry x="-507" y="-689" width="120" height="80" as="geometry" />
        </mxCell>
        <mxCell id="_Lv-nAi7Yl4UMt47Rkj5-20" value="" style="whiteSpace=wrap;html=1;aspect=fixed;labelBackgroundColor=none;" parent="1" vertex="1">
          <mxGeometry x="468" y="-689" width="182" height="182" as="geometry" />
        </mxCell>
        <mxCell id="_Lv-nAi7Yl4UMt47Rkj5-21" value="&lt;font style=&quot;font-size: 21px;&quot;&gt;SAG&lt;/font&gt;" style="rounded=0;whiteSpace=wrap;html=1;labelBackgroundColor=none;" parent="1" vertex="1">
          <mxGeometry x="499" y="-658" width="120" height="60" as="geometry" />
        </mxCell>
        <mxCell id="_Lv-nAi7Yl4UMt47Rkj5-22" value="&lt;font style=&quot;font-size: 21px;&quot;&gt;Finance&lt;/font&gt;" style="rounded=0;whiteSpace=wrap;html=1;labelBackgroundColor=none;" parent="1" vertex="1">
          <mxGeometry x="499" y="-585" width="120" height="60" as="geometry" />
        </mxCell>
        <mxCell id="_Lv-nAi7Yl4UMt47Rkj5-23" style="edgeStyle=orthogonalEdgeStyle;rounded=0;orthogonalLoop=1;jettySize=auto;html=1;exitX=1;exitY=0.25;exitDx=0;exitDy=0;entryX=0;entryY=0.5;entryDx=0;entryDy=0;labelBackgroundColor=none;fontColor=default;" parent="1" source="Vd40pdNITO2c-FGGTi2B-180" target="_Lv-nAi7Yl4UMt47Rkj5-20" edge="1">
          <mxGeometry relative="1" as="geometry" />
        </mxCell>
        <mxCell id="_Lv-nAi7Yl4UMt47Rkj5-25" style="edgeStyle=orthogonalEdgeStyle;rounded=0;orthogonalLoop=1;jettySize=auto;html=1;labelBackgroundColor=none;fontColor=default;" parent="1" source="_Lv-nAi7Yl4UMt47Rkj5-24" edge="1">
          <mxGeometry relative="1" as="geometry">
            <mxPoint x="338" y="-598" as="targetPoint" />
          </mxGeometry>
        </mxCell>
        <mxCell id="_Lv-nAi7Yl4UMt47Rkj5-24" value="&lt;font style=&quot;font-size: 21px;&quot;&gt;Super Admin&lt;/font&gt;" style="ellipse;whiteSpace=wrap;html=1;labelBackgroundColor=none;" parent="1" vertex="1">
          <mxGeometry x="270" y="-494" width="120" height="93" as="geometry" />
        </mxCell>
        <mxCell id="_Lv-nAi7Yl4UMt47Rkj5-35" value="" style="group" parent="1" vertex="1" connectable="0">
          <mxGeometry x="-13" y="-247" width="172" height="325" as="geometry" />
        </mxCell>
        <mxCell id="_Lv-nAi7Yl4UMt47Rkj5-26" value="" style="rounded=0;whiteSpace=wrap;html=1;labelBackgroundColor=none;" parent="_Lv-nAi7Yl4UMt47Rkj5-35" vertex="1">
          <mxGeometry width="172" height="325" as="geometry" />
        </mxCell>
        <mxCell id="_Lv-nAi7Yl4UMt47Rkj5-31" style="edgeStyle=orthogonalEdgeStyle;rounded=0;orthogonalLoop=1;jettySize=auto;html=1;entryX=0.5;entryY=0;entryDx=0;entryDy=0;labelBackgroundColor=none;fontColor=default;" parent="_Lv-nAi7Yl4UMt47Rkj5-35" source="_Lv-nAi7Yl4UMt47Rkj5-28" target="_Lv-nAi7Yl4UMt47Rkj5-29" edge="1">
          <mxGeometry relative="1" as="geometry" />
        </mxCell>
        <mxCell id="_Lv-nAi7Yl4UMt47Rkj5-28" value="&lt;font style=&quot;font-size: 21px;&quot;&gt;Super Admin&lt;/font&gt;" style="rounded=1;whiteSpace=wrap;html=1;labelBackgroundColor=none;" parent="_Lv-nAi7Yl4UMt47Rkj5-35" vertex="1">
          <mxGeometry x="26" y="18" width="120" height="60" as="geometry" />
        </mxCell>
        <mxCell id="_Lv-nAi7Yl4UMt47Rkj5-32" style="edgeStyle=orthogonalEdgeStyle;rounded=0;orthogonalLoop=1;jettySize=auto;html=1;entryX=0.5;entryY=0;entryDx=0;entryDy=0;labelBackgroundColor=none;fontColor=default;" parent="_Lv-nAi7Yl4UMt47Rkj5-35" source="_Lv-nAi7Yl4UMt47Rkj5-29" target="_Lv-nAi7Yl4UMt47Rkj5-30" edge="1">
          <mxGeometry relative="1" as="geometry" />
        </mxCell>
        <mxCell id="_Lv-nAi7Yl4UMt47Rkj5-29" value="&lt;font style=&quot;font-size: 21px;&quot;&gt;Finance&lt;/font&gt;" style="rounded=1;whiteSpace=wrap;html=1;labelBackgroundColor=none;" parent="_Lv-nAi7Yl4UMt47Rkj5-35" vertex="1">
          <mxGeometry x="26" y="120" width="120" height="62" as="geometry" />
        </mxCell>
        <mxCell id="_Lv-nAi7Yl4UMt47Rkj5-30" value="&lt;font style=&quot;font-size: 21px;&quot;&gt;Student&lt;/font&gt;" style="rounded=1;whiteSpace=wrap;html=1;labelBackgroundColor=none;" parent="_Lv-nAi7Yl4UMt47Rkj5-35" vertex="1">
          <mxGeometry x="26" y="221.5" width="120" height="60" as="geometry" />
        </mxCell>
        <mxCell id="_Lv-nAi7Yl4UMt47Rkj5-36" style="edgeStyle=orthogonalEdgeStyle;rounded=0;orthogonalLoop=1;jettySize=auto;html=1;entryX=0.25;entryY=0;entryDx=0;entryDy=0;" parent="1" source="Vd40pdNITO2c-FGGTi2B-182" target="_Lv-nAi7Yl4UMt47Rkj5-26" edge="1">
          <mxGeometry relative="1" as="geometry" />
        </mxCell>
      </root>
    </mxGraphModel>
  </diagram>
</mxfile>
